<?xml version="1.0" encoding="UTF-8"?>
<svg xmlns="http://www.w3.org/2000/svg" xmlns:xlink="http://www.w3.org/1999/xlink" width="468" height="468" viewBox="0 0 468 468">
<defs>
<g>
<g id="glyph-0-0">
<path d="M 0.398438 -3.390625 C 0.398438 -4.203125 0.480469 -4.855469 0.648438 -5.351562 C 0.816406 -5.847656 1.066406 -6.226562 1.394531 -6.496094 C 1.722656 -6.765625 2.140625 -6.898438 2.640625 -6.898438 C 3.007812 -6.898438 3.332031 -6.824219 3.609375 -6.675781 C 3.886719 -6.527344 4.117188 -6.316406 4.296875 -6.035156 C 4.480469 -5.753906 4.621094 -5.414062 4.726562 -5.011719 C 4.828125 -4.613281 4.878906 -4.070312 4.878906 -3.390625 C 4.878906 -2.582031 4.796875 -1.933594 4.632812 -1.4375 C 4.464844 -0.941406 4.21875 -0.558594 3.886719 -0.289062 C 3.558594 -0.0195312 3.140625 0.117188 2.640625 0.117188 C 1.976562 0.117188 1.457031 -0.121094 1.078125 -0.59375 C 0.625 -1.167969 0.398438 -2.097656 0.398438 -3.390625 M 1.265625 -3.390625 C 1.265625 -2.261719 1.398438 -1.511719 1.660156 -1.136719 C 1.925781 -0.761719 2.25 -0.578125 2.640625 -0.578125 C 3.027344 -0.578125 3.351562 -0.765625 3.617188 -1.140625 C 3.878906 -1.515625 4.011719 -2.265625 4.011719 -3.390625 C 4.011719 -4.519531 3.878906 -5.273438 3.617188 -5.644531 C 3.351562 -6.015625 3.023438 -6.203125 2.628906 -6.203125 C 2.242188 -6.203125 1.933594 -6.039062 1.703125 -5.710938 C 1.410156 -5.289062 1.265625 -4.515625 1.265625 -3.390625 Z M 1.265625 -3.390625 "/>
</g>
<g id="glyph-0-1">
<path d="M 0.871094 0 L 0.871094 -0.960938 L 1.832031 -0.960938 L 1.832031 0 Z M 0.871094 0 "/>
</g>
<g id="glyph-0-2">
<path d="M 0.398438 -1.800781 L 1.285156 -1.875 C 1.351562 -1.445312 1.503906 -1.121094 1.742188 -0.902344 C 1.980469 -0.683594 2.269531 -0.578125 2.605469 -0.578125 C 3.011719 -0.578125 3.355469 -0.730469 3.636719 -1.035156 C 3.917969 -1.34375 4.058594 -1.75 4.058594 -2.253906 C 4.058594 -2.734375 3.925781 -3.117188 3.652344 -3.394531 C 3.382812 -3.671875 3.03125 -3.8125 2.59375 -3.8125 C 2.320312 -3.8125 2.074219 -3.75 1.855469 -3.625 C 1.636719 -3.503906 1.464844 -3.34375 1.339844 -3.144531 L 0.546875 -3.25 L 1.214844 -6.777344 L 4.632812 -6.777344 L 4.632812 -5.972656 L 1.890625 -5.972656 L 1.519531 -4.125 C 1.929688 -4.414062 2.363281 -4.554688 2.816406 -4.554688 C 3.417969 -4.554688 3.921875 -4.347656 4.335938 -3.933594 C 4.75 -3.515625 4.953125 -2.984375 4.953125 -2.328125 C 4.953125 -1.707031 4.773438 -1.171875 4.410156 -0.71875 C 3.96875 -0.160156 3.367188 0.117188 2.605469 0.117188 C 1.980469 0.117188 1.472656 -0.0585938 1.074219 -0.40625 C 0.679688 -0.757812 0.453125 -1.222656 0.398438 -1.800781 Z M 0.398438 -1.800781 "/>
</g>
<g id="glyph-0-3">
<path d="M 3.578125 0 L 2.734375 0 L 2.734375 -5.375 C 2.53125 -5.183594 2.261719 -4.988281 1.933594 -4.796875 C 1.605469 -4.601562 1.308594 -4.457031 1.046875 -4.359375 L 1.046875 -5.175781 C 1.515625 -5.398438 1.929688 -5.664062 2.28125 -5.980469 C 2.636719 -6.296875 2.886719 -6.601562 3.03125 -6.898438 L 3.578125 -6.898438 Z M 3.578125 0 "/>
</g>
<g id="glyph-0-4">
<path d="M 2.394531 -3.722656 L 1.003906 0 L 0.113281 0 L 1.960938 -4.882812 L 1.21875 -6.871094 L 2.109375 -6.871094 L 4.679688 0 L 3.789062 0 Z M 2.394531 -3.722656 "/>
</g>
<g id="glyph-0-5">
</g>
<g id="glyph-0-6">
<path d="M 5.070312 -4.039062 L 0.535156 -4.039062 L 0.535156 -4.828125 L 5.070312 -4.828125 L 5.070312 -4.039062 M 5.070312 -1.953125 L 0.535156 -1.953125 L 0.535156 -2.742188 L 5.070312 -2.742188 Z M 5.070312 -1.953125 "/>
</g>
<g id="glyph-0-7">
<path d="M 0.453125 -5.972656 L 0.453125 -6.78125 L 4.902344 -6.78125 L 4.902344 -6.125 C 4.464844 -5.660156 4.03125 -5.042969 3.601562 -4.269531 C 3.171875 -3.5 2.839844 -2.703125 2.605469 -1.890625 C 2.4375 -1.3125 2.328125 -0.683594 2.28125 0 L 1.414062 0 C 1.425781 -0.539062 1.53125 -1.195312 1.734375 -1.960938 C 1.9375 -2.726562 2.230469 -3.464844 2.609375 -4.175781 C 2.988281 -4.886719 3.390625 -5.484375 3.820312 -5.972656 Z M 0.453125 -5.972656 "/>
</g>
<g id="glyph-0-8">
<path d="M 1.695312 -3.726562 C 1.347656 -3.855469 1.085938 -4.039062 0.917969 -4.273438 C 0.75 -4.511719 0.664062 -4.796875 0.664062 -5.128906 C 0.664062 -5.628906 0.84375 -6.046875 1.203125 -6.390625 C 1.5625 -6.730469 2.042969 -6.898438 2.640625 -6.898438 C 3.238281 -6.898438 3.722656 -6.726562 4.085938 -6.378906 C 4.453125 -6.027344 4.636719 -5.605469 4.636719 -5.105469 C 4.636719 -4.785156 4.550781 -4.507812 4.386719 -4.273438 C 4.21875 -4.035156 3.964844 -3.855469 3.625 -3.726562 C 4.046875 -3.589844 4.367188 -3.367188 4.585938 -3.0625 C 4.808594 -2.753906 4.917969 -2.390625 4.917969 -1.964844 C 4.917969 -1.375 4.710938 -0.882812 4.292969 -0.484375 C 3.878906 -0.0820312 3.332031 0.117188 2.652344 0.117188 C 1.976562 0.117188 1.429688 -0.0820312 1.011719 -0.484375 C 0.597656 -0.886719 0.390625 -1.386719 0.390625 -1.988281 C 0.390625 -2.433594 0.503906 -2.808594 0.730469 -3.109375 C 0.957031 -3.410156 1.277344 -3.617188 1.695312 -3.726562 M 1.527344 -5.15625 C 1.527344 -4.832031 1.632812 -4.566406 1.84375 -4.359375 C 2.050781 -4.152344 2.324219 -4.050781 2.65625 -4.050781 C 2.984375 -4.050781 3.25 -4.152344 3.457031 -4.355469 C 3.664062 -4.5625 3.769531 -4.8125 3.769531 -5.109375 C 3.769531 -5.417969 3.660156 -5.679688 3.449219 -5.890625 C 3.234375 -6.101562 2.96875 -6.207031 2.648438 -6.207031 C 2.328125 -6.207031 2.058594 -6.101562 1.847656 -5.898438 C 1.632812 -5.691406 1.527344 -5.445312 1.527344 -5.15625 M 1.257812 -1.984375 C 1.257812 -1.742188 1.3125 -1.507812 1.425781 -1.285156 C 1.542969 -1.058594 1.710938 -0.886719 1.9375 -0.761719 C 2.160156 -0.636719 2.402344 -0.578125 2.664062 -0.578125 C 3.066406 -0.578125 3.398438 -0.707031 3.660156 -0.964844 C 3.921875 -1.226562 4.054688 -1.554688 4.054688 -1.953125 C 4.054688 -2.359375 3.917969 -2.695312 3.648438 -2.960938 C 3.378906 -3.226562 3.039062 -3.359375 2.632812 -3.359375 C 2.238281 -3.359375 1.910156 -3.230469 1.648438 -2.96875 C 1.386719 -2.703125 1.257812 -2.375 1.257812 -1.984375 Z M 1.257812 -1.984375 "/>
</g>
<g id="glyph-0-9">
<path d="M 4.832031 -0.8125 L 4.832031 0 L 0.289062 0 C 0.285156 -0.203125 0.316406 -0.398438 0.390625 -0.585938 C 0.503906 -0.894531 0.691406 -1.199219 0.945312 -1.5 C 1.199219 -1.800781 1.566406 -2.148438 2.046875 -2.539062 C 2.796875 -3.152344 3.300781 -3.636719 3.5625 -3.996094 C 3.824219 -4.355469 3.957031 -4.691406 3.957031 -5.011719 C 3.957031 -5.34375 3.835938 -5.628906 3.597656 -5.855469 C 3.359375 -6.085938 3.046875 -6.203125 2.664062 -6.203125 C 2.257812 -6.203125 1.929688 -6.078125 1.6875 -5.835938 C 1.445312 -5.59375 1.320312 -5.253906 1.316406 -4.824219 L 0.449219 -4.914062 C 0.507812 -5.558594 0.734375 -6.050781 1.121094 -6.390625 C 1.507812 -6.730469 2.027344 -6.898438 2.679688 -6.898438 C 3.339844 -6.898438 3.863281 -6.71875 4.246094 -6.351562 C 4.632812 -5.984375 4.824219 -5.53125 4.824219 -4.992188 C 4.824219 -4.71875 4.765625 -4.445312 4.65625 -4.179688 C 4.542969 -3.914062 4.355469 -3.636719 4.09375 -3.34375 C 3.832031 -3.046875 3.398438 -2.644531 2.792969 -2.132812 C 2.289062 -1.707031 1.960938 -1.417969 1.820312 -1.269531 C 1.675781 -1.117188 1.554688 -0.964844 1.460938 -0.8125 Z M 4.832031 -0.8125 "/>
</g>
<g id="glyph-0-10">
<path d="M 3.101562 0 L 3.101562 -1.644531 L 0.121094 -1.644531 L 0.121094 -2.417969 L 3.257812 -6.871094 L 3.945312 -6.871094 L 3.945312 -2.417969 L 4.875 -2.417969 L 4.875 -1.644531 L 3.945312 -1.644531 L 3.945312 0 L 3.101562 0 M 3.101562 -2.417969 L 3.101562 -5.515625 L 0.953125 -2.417969 Z M 3.101562 -2.417969 "/>
</g>
<g id="glyph-0-11">
<path d="M 4.777344 -5.1875 L 3.9375 -5.125 C 3.863281 -5.453125 3.757812 -5.695312 3.617188 -5.84375 C 3.390625 -6.085938 3.109375 -6.207031 2.773438 -6.207031 C 2.507812 -6.207031 2.269531 -6.132812 2.066406 -5.980469 C 1.800781 -5.789062 1.59375 -5.503906 1.4375 -5.132812 C 1.285156 -4.761719 1.207031 -4.230469 1.199219 -3.542969 C 1.402344 -3.851562 1.652344 -4.082031 1.945312 -4.234375 C 2.238281 -4.382812 2.546875 -4.457031 2.867188 -4.457031 C 3.429688 -4.457031 3.910156 -4.25 4.304688 -3.835938 C 4.699219 -3.421875 4.898438 -2.886719 4.898438 -2.230469 C 4.898438 -1.800781 4.804688 -1.398438 4.621094 -1.027344 C 4.433594 -0.660156 4.179688 -0.375 3.851562 -0.179688 C 3.527344 0.0195312 3.160156 0.117188 2.746094 0.117188 C 2.042969 0.117188 1.46875 -0.140625 1.027344 -0.660156 C 0.582031 -1.175781 0.359375 -2.027344 0.359375 -3.214844 C 0.359375 -4.542969 0.605469 -5.507812 1.097656 -6.113281 C 1.523438 -6.636719 2.101562 -6.898438 2.828125 -6.898438 C 3.367188 -6.898438 3.808594 -6.75 4.15625 -6.445312 C 4.5 -6.140625 4.707031 -5.722656 4.777344 -5.1875 M 1.332031 -2.226562 C 1.332031 -1.9375 1.394531 -1.65625 1.515625 -1.390625 C 1.640625 -1.125 1.8125 -0.925781 2.035156 -0.785156 C 2.257812 -0.644531 2.488281 -0.578125 2.734375 -0.578125 C 3.089844 -0.578125 3.394531 -0.71875 3.652344 -1.007812 C 3.90625 -1.296875 4.035156 -1.6875 4.035156 -2.179688 C 4.035156 -2.65625 3.910156 -3.027344 3.65625 -3.300781 C 3.402344 -3.574219 3.085938 -3.710938 2.699219 -3.710938 C 2.320312 -3.710938 1.996094 -3.574219 1.730469 -3.300781 C 1.464844 -3.027344 1.332031 -2.671875 1.332031 -2.226562 Z M 1.332031 -2.226562 "/>
</g>
<g id="glyph-1-0">
<path d="M 0 -0.890625 L -8.589844 -0.890625 L -8.589844 -2.601562 L -2.507812 -4.632812 C -1.941406 -4.820312 -1.515625 -4.957031 -1.234375 -5.046875 C -1.546875 -5.140625 -2.007812 -5.292969 -2.613281 -5.5 L -8.589844 -7.558594 L -8.589844 -9.085938 L 0 -9.085938 L 0 -7.992188 L -7.1875 -7.992188 L 0 -5.496094 L 0 -4.46875 L -7.3125 -1.988281 L 0 -1.984375 Z M 0 -0.890625 "/>
</g>
<g id="glyph-1-1">
<path d="M -2.003906 -5.050781 L -1.867188 -6.140625 C -1.230469 -5.96875 -0.738281 -5.648438 -0.386719 -5.1875 C -0.0351562 -4.71875 0.140625 -4.125 0.140625 -3.40625 C 0.140625 -2.492188 -0.140625 -1.773438 -0.699219 -1.238281 C -1.261719 -0.707031 -2.046875 -0.441406 -3.058594 -0.441406 C -4.105469 -0.441406 -4.917969 -0.710938 -5.496094 -1.25 C -6.074219 -1.789062 -6.363281 -2.484375 -6.363281 -3.347656 C -6.363281 -4.179688 -6.078125 -4.859375 -5.515625 -5.382812 C -4.945312 -5.914062 -4.148438 -6.175781 -3.121094 -6.175781 C -3.058594 -6.175781 -2.964844 -6.171875 -2.839844 -6.171875 L -2.84375 -1.53125 C -2.15625 -1.566406 -1.632812 -1.761719 -1.269531 -2.109375 C -0.90625 -2.457031 -0.726562 -2.890625 -0.726562 -3.410156 C -0.726562 -3.796875 -0.828125 -4.125 -1.03125 -4.398438 C -1.234375 -4.671875 -1.558594 -4.890625 -2.003906 -5.050781 M -3.710938 -1.589844 L -3.707031 -5.0625 C -4.230469 -5.015625 -4.625 -4.882812 -4.886719 -4.664062 C -5.292969 -4.328125 -5.496094 -3.890625 -5.496094 -3.359375 C -5.496094 -2.871094 -5.332031 -2.464844 -5.007812 -2.136719 C -4.683594 -1.804688 -4.25 -1.625 -3.710938 -1.589844 Z M -3.710938 -1.589844 "/>
</g>
<g id="glyph-1-2">
<path d="M -0.765625 -4.851562 C -0.433594 -4.460938 -0.199219 -4.085938 -0.0625 -3.722656 C 0.0703125 -3.363281 0.140625 -2.972656 0.140625 -2.5625 C 0.140625 -1.875 -0.0273438 -1.351562 -0.359375 -0.984375 C -0.695312 -0.617188 -1.121094 -0.433594 -1.640625 -0.433594 C -1.945312 -0.433594 -2.222656 -0.503906 -2.476562 -0.640625 C -2.726562 -0.78125 -2.929688 -0.960938 -3.082031 -1.1875 C -3.234375 -1.410156 -3.347656 -1.664062 -3.429688 -1.945312 C -3.480469 -2.152344 -3.535156 -2.464844 -3.585938 -2.882812 C -3.6875 -3.734375 -3.808594 -4.359375 -3.949219 -4.765625 C -4.09375 -4.765625 -4.183594 -4.769531 -4.226562 -4.769531 C -4.652344 -4.769531 -4.957031 -4.671875 -5.132812 -4.46875 C -5.371094 -4.203125 -5.492188 -3.800781 -5.492188 -3.269531 C -5.492188 -2.773438 -5.402344 -2.40625 -5.230469 -2.171875 C -5.054688 -1.933594 -4.746094 -1.757812 -4.304688 -1.648438 L -4.445312 -0.617188 C -4.886719 -0.707031 -5.246094 -0.863281 -5.515625 -1.078125 C -5.789062 -1.292969 -5.996094 -1.601562 -6.144531 -2.011719 C -6.289062 -2.414062 -6.363281 -2.886719 -6.363281 -3.421875 C -6.363281 -3.953125 -6.300781 -4.382812 -6.175781 -4.71875 C -6.050781 -5.046875 -5.894531 -5.292969 -5.703125 -5.449219 C -5.515625 -5.605469 -5.273438 -5.714844 -4.984375 -5.777344 C -4.804688 -5.8125 -4.484375 -5.828125 -4.015625 -5.828125 L -2.605469 -5.828125 C -1.628906 -5.828125 -1.007812 -5.851562 -0.746094 -5.898438 C -0.488281 -5.941406 -0.238281 -6.03125 0 -6.164062 L 0 -5.0625 C -0.21875 -4.953125 -0.472656 -4.882812 -0.765625 -4.851562 M -3.121094 -4.765625 C -2.964844 -4.378906 -2.832031 -3.804688 -2.726562 -3.039062 C -2.660156 -2.605469 -2.589844 -2.300781 -2.515625 -2.121094 C -2.433594 -1.941406 -2.320312 -1.800781 -2.171875 -1.707031 C -2.019531 -1.605469 -1.851562 -1.558594 -1.671875 -1.558594 C -1.386719 -1.558594 -1.152344 -1.664062 -0.964844 -1.878906 C -0.777344 -2.089844 -0.683594 -2.402344 -0.683594 -2.8125 C -0.683594 -3.21875 -0.773438 -3.578125 -0.953125 -3.898438 C -1.128906 -4.210938 -1.371094 -4.445312 -1.679688 -4.59375 C -1.917969 -4.707031 -2.269531 -4.761719 -2.734375 -4.765625 Z M -3.121094 -4.765625 "/>
</g>
<g id="glyph-1-3">
<path d="M 0 -0.789062 L -6.222656 -0.792969 L -6.222656 -1.742188 L -5.335938 -1.742188 C -6.019531 -2.195312 -6.363281 -2.855469 -6.363281 -3.722656 C -6.363281 -4.09375 -6.296875 -4.441406 -6.160156 -4.753906 C -6.027344 -5.070312 -5.847656 -5.304688 -5.632812 -5.460938 C -5.410156 -5.617188 -5.152344 -5.726562 -4.851562 -5.789062 C -4.65625 -5.828125 -4.3125 -5.847656 -3.824219 -5.847656 L 0 -5.847656 L 0 -4.792969 L -3.785156 -4.792969 C -4.214844 -4.792969 -4.535156 -4.75 -4.75 -4.671875 C -4.960938 -4.585938 -5.132812 -4.441406 -5.257812 -4.234375 C -5.386719 -4.023438 -5.449219 -3.78125 -5.449219 -3.5 C -5.449219 -3.046875 -5.304688 -2.660156 -5.023438 -2.335938 C -4.734375 -2.007812 -4.195312 -1.847656 -3.398438 -1.847656 L 0 -1.84375 Z M 0 -0.789062 "/>
</g>
<g id="glyph-1-4">
</g>
<g id="glyph-1-5">
<path d="M 0 -0.914062 L -8.589844 -0.914062 L -8.589844 -2.082031 L -1.84375 -6.59375 L -8.589844 -6.59375 L -8.589844 -7.683594 L 0 -7.679688 L 0 -6.515625 L -6.75 -2.003906 L 0 -2.003906 Z M 0 -0.914062 "/>
</g>
<g id="glyph-1-6">
<path d="M -3.011719 -7.054688 L -2.722656 -8.191406 C -1.789062 -7.953125 -1.078125 -7.523438 -0.589844 -6.90625 C -0.0976562 -6.285156 0.148438 -5.527344 0.148438 -4.632812 C 0.148438 -3.710938 -0.0429688 -2.957031 -0.417969 -2.375 C -0.796875 -1.796875 -1.34375 -1.355469 -2.054688 -1.050781 C -2.769531 -0.75 -3.539062 -0.597656 -4.359375 -0.597656 C -5.253906 -0.597656 -6.035156 -0.769531 -6.699219 -1.109375 C -7.367188 -1.453125 -7.871094 -1.9375 -8.21875 -2.570312 C -8.5625 -3.199219 -8.734375 -3.894531 -8.734375 -4.652344 C -8.734375 -5.511719 -8.515625 -6.234375 -8.078125 -6.820312 C -7.640625 -7.40625 -7.027344 -7.8125 -6.234375 -8.046875 L -5.96875 -6.925781 C -6.59375 -6.726562 -7.050781 -6.4375 -7.335938 -6.058594 C -7.621094 -5.679688 -7.765625 -5.203125 -7.765625 -4.628906 C -7.765625 -3.96875 -7.605469 -3.417969 -7.289062 -2.972656 C -6.972656 -2.53125 -6.546875 -2.21875 -6.015625 -2.039062 C -5.480469 -1.859375 -4.929688 -1.769531 -4.367188 -1.769531 C -3.632812 -1.769531 -2.996094 -1.875 -2.453125 -2.089844 C -1.90625 -2.300781 -1.5 -2.632812 -1.230469 -3.082031 C -0.960938 -3.53125 -0.824219 -4.015625 -0.824219 -4.539062 C -0.824219 -5.175781 -1.007812 -5.714844 -1.375 -6.15625 C -1.742188 -6.597656 -2.289062 -6.898438 -3.011719 -7.054688 Z M -3.011719 -7.054688 "/>
</g>
<g id="glyph-1-7">
<path d="M 0 0.015625 L -8.589844 -3.28125 L -8.589844 -4.507812 L 0 -8.023438 L 0 -6.726562 L -2.601562 -5.726562 L -2.601562 -2.132812 L 0 -1.1875 L 0 0.015625 M -3.527344 -2.460938 L -3.527344 -5.375 L -5.90625 -4.476562 C -6.628906 -4.203125 -7.222656 -4 -7.6875 -3.867188 C -7.136719 -3.757812 -6.589844 -3.605469 -6.046875 -3.40625 Z M -3.527344 -2.460938 "/>
</g>
<g id="glyph-1-8">
<path d="M 0 -1.042969 L -5.402344 -1.042969 L -5.402344 -0.113281 L -6.222656 -0.113281 L -6.222656 -1.042969 L -6.882812 -1.042969 C -7.300781 -1.042969 -7.613281 -1.078125 -7.816406 -1.15625 C -8.089844 -1.253906 -8.3125 -1.433594 -8.480469 -1.691406 C -8.652344 -1.945312 -8.734375 -2.304688 -8.734375 -2.765625 C -8.734375 -3.0625 -8.703125 -3.390625 -8.632812 -3.75 L -7.710938 -3.59375 C -7.75 -3.371094 -7.769531 -3.164062 -7.769531 -2.972656 C -7.769531 -2.648438 -7.699219 -2.421875 -7.5625 -2.292969 C -7.425781 -2.15625 -7.171875 -2.09375 -6.796875 -2.09375 L -6.222656 -2.09375 L -6.222656 -3.304688 L -5.402344 -3.304688 L -5.402344 -2.09375 L 0 -2.09375 Z M 0 -1.042969 "/>
</g>
<g id="glyph-1-9">
<path d="M -2.277344 -4.851562 L -2.144531 -5.890625 C -1.429688 -5.773438 -0.871094 -5.484375 -0.464844 -5.019531 C -0.0625 -4.550781 0.140625 -3.976562 0.140625 -3.296875 C 0.140625 -2.445312 -0.136719 -1.761719 -0.695312 -1.246094 C -1.25 -0.726562 -2.046875 -0.46875 -3.085938 -0.46875 C -3.757812 -0.46875 -4.347656 -0.582031 -4.851562 -0.804688 C -5.355469 -1.027344 -5.734375 -1.363281 -5.984375 -1.820312 C -6.238281 -2.273438 -6.363281 -2.769531 -6.363281 -3.304688 C -6.363281 -3.980469 -6.191406 -4.53125 -5.851562 -4.960938 C -5.507812 -5.390625 -5.023438 -5.667969 -4.394531 -5.789062 L -4.234375 -4.765625 C -4.652344 -4.664062 -4.96875 -4.492188 -5.179688 -4.246094 C -5.390625 -3.996094 -5.496094 -3.699219 -5.496094 -3.347656 C -5.496094 -2.8125 -5.304688 -2.382812 -4.925781 -2.050781 C -4.542969 -1.71875 -3.941406 -1.554688 -3.117188 -1.554688 C -2.28125 -1.554688 -1.671875 -1.710938 -1.292969 -2.03125 C -0.917969 -2.351562 -0.726562 -2.769531 -0.726562 -3.289062 C -0.726562 -3.699219 -0.851562 -4.046875 -1.105469 -4.324219 C -1.359375 -4.601562 -1.75 -4.777344 -2.277344 -4.851562 Z M -2.277344 -4.851562 "/>
</g>
<g id="glyph-1-10">
<path d="M -0.941406 -3.09375 L -0.0117188 -3.246094 C 0.0507812 -2.949219 0.0820312 -2.683594 0.0820312 -2.449219 C 0.0820312 -2.066406 0.0195312 -1.769531 -0.0976562 -1.558594 C -0.21875 -1.347656 -0.378906 -1.199219 -0.578125 -1.113281 C -0.773438 -1.027344 -1.1875 -0.984375 -1.820312 -0.984375 L -5.402344 -0.984375 L -5.402344 -0.210938 L -6.222656 -0.210938 L -6.222656 -0.984375 L -7.765625 -0.984375 L -8.398438 -2.035156 L -6.222656 -2.035156 L -6.222656 -3.09375 L -5.402344 -3.09375 L -5.402344 -2.035156 L -1.761719 -2.03125 C -1.460938 -2.03125 -1.269531 -2.050781 -1.183594 -2.089844 C -1.097656 -2.125 -1.027344 -2.1875 -0.976562 -2.269531 C -0.925781 -2.355469 -0.902344 -2.472656 -0.902344 -2.632812 C -0.902344 -2.75 -0.914062 -2.902344 -0.941406 -3.09375 Z M -0.941406 -3.09375 "/>
</g>
<g id="glyph-1-11">
<path d="M -1.859375 -0.371094 L -2.023438 -1.414062 C -1.601562 -1.46875 -1.28125 -1.632812 -1.058594 -1.902344 C -0.835938 -2.167969 -0.726562 -2.542969 -0.726562 -3.023438 C -0.726562 -3.507812 -0.824219 -3.867188 -1.023438 -4.101562 C -1.21875 -4.335938 -1.449219 -4.453125 -1.714844 -4.453125 C -1.953125 -4.453125 -2.140625 -4.347656 -2.277344 -4.140625 C -2.371094 -3.996094 -2.492188 -3.640625 -2.636719 -3.0625 C -2.832031 -2.289062 -3 -1.753906 -3.144531 -1.457031 C -3.285156 -1.15625 -3.484375 -0.929688 -3.734375 -0.777344 C -3.988281 -0.621094 -4.265625 -0.546875 -4.570312 -0.546875 C -4.847656 -0.546875 -5.105469 -0.609375 -5.339844 -0.734375 C -5.578125 -0.863281 -5.773438 -1.035156 -5.929688 -1.253906 C -6.050781 -1.417969 -6.152344 -1.640625 -6.238281 -1.925781 C -6.320312 -2.207031 -6.363281 -2.511719 -6.363281 -2.835938 C -6.363281 -3.324219 -6.292969 -3.753906 -6.152344 -4.121094 C -6.011719 -4.492188 -5.820312 -4.761719 -5.582031 -4.9375 C -5.339844 -5.113281 -5.019531 -5.234375 -4.617188 -5.304688 L -4.476562 -4.273438 C -4.796875 -4.226562 -5.046875 -4.089844 -5.226562 -3.863281 C -5.40625 -3.640625 -5.496094 -3.324219 -5.496094 -2.914062 C -5.496094 -2.425781 -5.414062 -2.082031 -5.257812 -1.875 C -5.09375 -1.667969 -4.90625 -1.566406 -4.695312 -1.566406 C -4.554688 -1.566406 -4.433594 -1.605469 -4.324219 -1.695312 C -4.210938 -1.777344 -4.117188 -1.914062 -4.042969 -2.097656 C -4.003906 -2.203125 -3.914062 -2.515625 -3.773438 -3.03125 C -3.574219 -3.773438 -3.410156 -4.296875 -3.285156 -4.589844 C -3.15625 -4.886719 -2.972656 -5.117188 -2.730469 -5.285156 C -2.488281 -5.453125 -2.1875 -5.535156 -1.828125 -5.539062 C -1.476562 -5.535156 -1.144531 -5.433594 -0.835938 -5.230469 C -0.523438 -5.023438 -0.285156 -4.726562 -0.113281 -4.34375 C 0.0546875 -3.953125 0.140625 -3.515625 0.140625 -3.03125 C 0.140625 -2.21875 -0.0273438 -1.605469 -0.363281 -1.179688 C -0.699219 -0.757812 -1.199219 -0.488281 -1.859375 -0.371094 Z M -1.859375 -0.371094 "/>
</g>
<g id="glyph-1-12">
<path d="M -7.375 -0.796875 L -8.589844 -0.796875 L -8.589844 -1.851562 L -7.375 -1.851562 L -7.375 -0.796875 M 0 -0.796875 L -6.222656 -0.796875 L -6.222656 -1.851562 L 0 -1.851562 Z M 0 -0.796875 "/>
</g>
<g id="glyph-1-13">
<path d="M 0 -0.234375 L -0.855469 -0.234375 L -5.402344 -4.195312 C -5.378906 -3.746094 -5.367188 -3.347656 -5.367188 -3.007812 L -5.367188 -0.46875 L -6.222656 -0.46875 L -6.222656 -5.554688 L -5.523438 -5.554688 L -1.574219 -2.1875 L -0.855469 -1.535156 C -0.890625 -2.007812 -0.90625 -2.449219 -0.90625 -2.867188 L -0.90625 -5.742188 L 0 -5.742188 Z M 0 -0.234375 "/>
</g>
<g id="glyph-2-0">
<path d="M 1.933594 -0.457031 L 1.933594 0.53125 C 1.933594 1.164062 1.855469 1.851562 1.699219 2.589844 L 0.710938 2.589844 C 0.8125 2.105469 0.875 1.773438 0.898438 1.601562 C 0.945312 1.050781 0.972656 0.652344 0.972656 0.398438 L 0.972656 -5.589844 C 0.972656 -6.289062 1.042969 -6.808594 1.179688 -7.144531 C 1.320312 -7.484375 1.570312 -7.765625 1.929688 -7.992188 C 2.292969 -8.21875 2.726562 -8.332031 3.226562 -8.332031 C 3.925781 -8.332031 4.484375 -8.144531 4.90625 -7.769531 C 5.320312 -7.394531 5.53125 -6.949219 5.53125 -6.433594 C 5.53125 -6.101562 5.445312 -5.785156 5.277344 -5.488281 C 5.105469 -5.1875 4.84375 -4.929688 4.488281 -4.710938 C 5.535156 -4.210938 6.058594 -3.433594 6.058594 -2.378906 C 6.058594 -1.910156 5.949219 -1.472656 5.730469 -1.066406 C 5.511719 -0.660156 5.210938 -0.351562 4.828125 -0.136719 C 4.445312 0.0742188 4.050781 0.179688 3.644531 0.179688 C 3.382812 0.179688 3.125 0.136719 2.867188 0.046875 C 2.613281 -0.0429688 2.300781 -0.210938 1.933594 -0.457031 M 1.933594 -0.921875 C 2.3125 -0.652344 2.640625 -0.460938 2.921875 -0.34375 C 3.132812 -0.261719 3.34375 -0.21875 3.554688 -0.21875 C 3.949219 -0.21875 4.28125 -0.378906 4.550781 -0.707031 C 4.816406 -1.03125 4.953125 -1.546875 4.953125 -2.257812 C 4.953125 -2.703125 4.886719 -3.089844 4.761719 -3.425781 C 4.632812 -3.757812 4.410156 -4.125 4.089844 -4.523438 C 3.820312 -4.433594 3.585938 -4.390625 3.390625 -4.390625 C 3.15625 -4.390625 2.992188 -4.421875 2.898438 -4.492188 C 2.800781 -4.5625 2.753906 -4.640625 2.753906 -4.722656 C 2.753906 -4.796875 2.789062 -4.863281 2.867188 -4.921875 C 2.9375 -4.980469 3.058594 -5.007812 3.222656 -5.007812 C 3.414062 -5.007812 3.703125 -4.957031 4.089844 -4.859375 C 4.363281 -5.398438 4.5 -5.914062 4.5 -6.398438 C 4.5 -6.890625 4.378906 -7.273438 4.136719 -7.539062 C 3.894531 -7.8125 3.59375 -7.945312 3.234375 -7.945312 C 2.78125 -7.945312 2.429688 -7.753906 2.179688 -7.371094 C 2.015625 -7.117188 1.933594 -6.710938 1.933594 -6.148438 Z M 1.933594 -0.921875 "/>
</g>
<g id="glyph-3-0">
<path d="M 0.539062 -2.757812 L 1.609375 -2.851562 C 1.660156 -2.421875 1.78125 -2.070312 1.964844 -1.796875 C 2.152344 -1.519531 2.4375 -1.296875 2.828125 -1.128906 C 3.21875 -0.957031 3.660156 -0.875 4.148438 -0.875 C 4.582031 -0.875 4.964844 -0.9375 5.296875 -1.066406 C 5.628906 -1.195312 5.875 -1.371094 6.039062 -1.597656 C 6.199219 -1.820312 6.28125 -2.066406 6.28125 -2.332031 C 6.28125 -2.601562 6.203125 -2.835938 6.046875 -3.039062 C 5.890625 -3.238281 5.632812 -3.40625 5.273438 -3.546875 C 5.042969 -3.632812 4.53125 -3.773438 3.742188 -3.964844 C 2.953125 -4.152344 2.402344 -4.332031 2.085938 -4.5 C 1.675781 -4.714844 1.371094 -4.980469 1.167969 -5.300781 C 0.96875 -5.617188 0.867188 -5.972656 0.867188 -6.367188 C 0.867188 -6.804688 0.992188 -7.207031 1.234375 -7.585938 C 1.484375 -7.960938 1.839844 -8.246094 2.3125 -8.445312 C 2.785156 -8.636719 3.3125 -8.734375 3.890625 -8.734375 C 4.527344 -8.734375 5.089844 -8.632812 5.574219 -8.429688 C 6.0625 -8.222656 6.433594 -7.921875 6.695312 -7.523438 C 6.957031 -7.125 7.097656 -6.671875 7.117188 -6.171875 L 6.03125 -6.085938 C 5.96875 -6.628906 5.773438 -7.039062 5.433594 -7.320312 C 5.097656 -7.59375 4.597656 -7.734375 3.9375 -7.734375 C 3.25 -7.734375 2.75 -7.609375 2.433594 -7.355469 C 2.121094 -7.105469 1.960938 -6.800781 1.960938 -6.445312 C 1.960938 -6.136719 2.074219 -5.882812 2.296875 -5.683594 C 2.515625 -5.484375 3.085938 -5.28125 4.011719 -5.070312 C 4.933594 -4.863281 5.566406 -4.679688 5.914062 -4.523438 C 6.410156 -4.292969 6.78125 -4 7.019531 -3.648438 C 7.257812 -3.292969 7.375 -2.886719 7.375 -2.425781 C 7.375 -1.96875 7.246094 -1.539062 6.984375 -1.132812 C 6.722656 -0.730469 6.347656 -0.414062 5.855469 -0.191406 C 5.367188 0.0351562 4.8125 0.148438 4.203125 0.148438 C 3.421875 0.148438 2.773438 0.03125 2.246094 -0.195312 C 1.722656 -0.417969 1.308594 -0.761719 1.011719 -1.214844 C 0.710938 -1.671875 0.554688 -2.1875 0.539062 -2.757812 Z M 0.539062 -2.757812 "/>
</g>
<g id="glyph-3-1">
<path d="M 4.851562 -0.765625 C 4.460938 -0.433594 4.085938 -0.199219 3.722656 -0.0625 C 3.363281 0.0703125 2.972656 0.140625 2.5625 0.140625 C 1.875 0.140625 1.351562 -0.0273438 0.984375 -0.359375 C 0.617188 -0.695312 0.433594 -1.121094 0.433594 -1.640625 C 0.433594 -1.945312 0.503906 -2.222656 0.640625 -2.476562 C 0.78125 -2.726562 0.960938 -2.929688 1.1875 -3.082031 C 1.410156 -3.234375 1.664062 -3.347656 1.945312 -3.429688 C 2.152344 -3.480469 2.464844 -3.535156 2.882812 -3.585938 C 3.734375 -3.6875 4.359375 -3.808594 4.765625 -3.949219 C 4.765625 -4.09375 4.769531 -4.183594 4.769531 -4.226562 C 4.769531 -4.652344 4.671875 -4.957031 4.46875 -5.132812 C 4.203125 -5.371094 3.800781 -5.492188 3.269531 -5.492188 C 2.773438 -5.492188 2.40625 -5.402344 2.171875 -5.230469 C 1.933594 -5.054688 1.757812 -4.746094 1.648438 -4.304688 L 0.617188 -4.445312 C 0.707031 -4.886719 0.863281 -5.246094 1.078125 -5.515625 C 1.292969 -5.789062 1.601562 -5.996094 2.007812 -6.144531 C 2.414062 -6.289062 2.886719 -6.363281 3.421875 -6.363281 C 3.953125 -6.363281 4.382812 -6.300781 4.71875 -6.175781 C 5.046875 -6.050781 5.292969 -5.894531 5.449219 -5.703125 C 5.605469 -5.515625 5.714844 -5.273438 5.777344 -4.984375 C 5.8125 -4.804688 5.828125 -4.484375 5.828125 -4.015625 L 5.828125 -2.609375 C 5.828125 -1.628906 5.851562 -1.007812 5.898438 -0.746094 C 5.941406 -0.488281 6.03125 -0.238281 6.164062 0 L 5.0625 0 C 4.953125 -0.21875 4.882812 -0.476562 4.851562 -0.765625 M 4.765625 -3.125 C 4.378906 -2.964844 3.804688 -2.832031 3.039062 -2.726562 C 2.605469 -2.660156 2.300781 -2.589844 2.121094 -2.515625 C 1.941406 -2.433594 1.800781 -2.320312 1.703125 -2.171875 C 1.605469 -2.019531 1.558594 -1.851562 1.558594 -1.671875 C 1.558594 -1.386719 1.664062 -1.152344 1.878906 -0.96875 C 2.089844 -0.78125 2.402344 -0.683594 2.8125 -0.6875 C 3.21875 -0.683594 3.578125 -0.773438 3.898438 -0.953125 C 4.210938 -1.128906 4.445312 -1.371094 4.59375 -1.679688 C 4.707031 -1.917969 4.761719 -2.269531 4.765625 -2.734375 Z M 4.765625 -3.125 "/>
</g>
<g id="glyph-3-2">
<path d="M 0.789062 0 L 0.789062 -6.222656 L 1.734375 -6.222656 L 1.734375 -5.351562 C 1.929688 -5.65625 2.1875 -5.898438 2.515625 -6.085938 C 2.835938 -6.269531 3.207031 -6.363281 3.621094 -6.363281 C 4.082031 -6.363281 4.460938 -6.265625 4.753906 -6.078125 C 5.050781 -5.882812 5.257812 -5.617188 5.378906 -5.273438 C 5.871094 -6 6.511719 -6.363281 7.300781 -6.363281 C 7.917969 -6.363281 8.390625 -6.191406 8.726562 -5.851562 C 9.054688 -5.507812 9.222656 -4.980469 9.222656 -4.273438 L 9.222656 0 L 8.171875 0 L 8.171875 -3.921875 C 8.171875 -4.339844 8.140625 -4.644531 8.070312 -4.832031 C 8.003906 -5.015625 7.878906 -5.164062 7.699219 -5.28125 C 7.519531 -5.390625 7.308594 -5.449219 7.066406 -5.449219 C 6.628906 -5.449219 6.265625 -5.304688 5.976562 -5.011719 C 5.6875 -4.722656 5.542969 -4.253906 5.542969 -3.617188 L 5.542969 0 L 4.488281 0 L 4.488281 -4.042969 C 4.488281 -4.511719 4.402344 -4.863281 4.230469 -5.097656 C 4.058594 -5.332031 3.777344 -5.449219 3.386719 -5.449219 C 3.089844 -5.449219 2.816406 -5.371094 2.5625 -5.214844 C 2.3125 -5.058594 2.128906 -4.828125 2.015625 -4.53125 C 1.902344 -4.226562 1.84375 -3.792969 1.84375 -3.226562 L 1.84375 0 Z M 0.789062 0 "/>
</g>
<g id="glyph-3-3">
<path d="M 0.789062 2.382812 L 0.789062 -6.222656 L 1.75 -6.222656 L 1.75 -5.414062 C 1.976562 -5.730469 2.234375 -5.96875 2.519531 -6.125 C 2.804688 -6.285156 3.148438 -6.363281 3.554688 -6.363281 C 4.085938 -6.363281 4.554688 -6.226562 4.960938 -5.953125 C 5.367188 -5.679688 5.675781 -5.292969 5.882812 -4.796875 C 6.089844 -4.296875 6.195312 -3.75 6.195312 -3.15625 C 6.195312 -2.519531 6.078125 -1.949219 5.851562 -1.4375 C 5.621094 -0.929688 5.289062 -0.539062 4.855469 -0.265625 C 4.417969 0.00390625 3.960938 0.140625 3.480469 0.140625 C 3.128906 0.140625 2.8125 0.0664062 2.535156 -0.0820312 C 2.253906 -0.230469 2.023438 -0.417969 1.84375 -0.644531 L 1.84375 2.382812 L 0.789062 2.382812 M 1.746094 -3.078125 C 1.746094 -2.273438 1.90625 -1.683594 2.234375 -1.300781 C 2.554688 -0.917969 2.949219 -0.726562 3.410156 -0.726562 C 3.878906 -0.726562 4.28125 -0.925781 4.613281 -1.320312 C 4.949219 -1.71875 5.113281 -2.332031 5.117188 -3.164062 C 5.113281 -3.957031 4.953125 -4.550781 4.625 -4.945312 C 4.300781 -5.339844 3.910156 -5.535156 3.457031 -5.539062 C 3.007812 -5.535156 2.609375 -5.328125 2.265625 -4.90625 C 1.917969 -4.488281 1.746094 -3.875 1.746094 -3.078125 Z M 1.746094 -3.078125 "/>
</g>
<g id="glyph-3-4">
<path d="M 0.765625 0 L 0.765625 -8.589844 L 1.820312 -8.589844 L 1.820312 0 Z M 0.765625 0 "/>
</g>
<g id="glyph-3-5">
<path d="M 5.050781 -2.003906 L 6.140625 -1.867188 C 5.96875 -1.230469 5.648438 -0.738281 5.1875 -0.386719 C 4.71875 -0.0351562 4.125 0.140625 3.40625 0.140625 C 2.492188 0.140625 1.773438 -0.140625 1.238281 -0.699219 C 0.707031 -1.261719 0.4375 -2.046875 0.4375 -3.058594 C 0.4375 -4.105469 0.710938 -4.917969 1.25 -5.496094 C 1.789062 -6.074219 2.484375 -6.363281 3.34375 -6.363281 C 4.179688 -6.363281 4.859375 -6.078125 5.382812 -5.515625 C 5.914062 -4.945312 6.175781 -4.148438 6.175781 -3.125 C 6.175781 -3.058594 6.171875 -2.964844 6.171875 -2.84375 L 1.53125 -2.84375 C 1.566406 -2.15625 1.761719 -1.632812 2.109375 -1.273438 C 2.457031 -0.90625 2.890625 -0.726562 3.410156 -0.726562 C 3.796875 -0.726562 4.125 -0.828125 4.398438 -1.03125 C 4.671875 -1.234375 4.890625 -1.558594 5.050781 -2.003906 M 1.585938 -3.710938 L 5.0625 -3.710938 C 5.015625 -4.230469 4.882812 -4.625 4.664062 -4.886719 C 4.328125 -5.292969 3.890625 -5.496094 3.359375 -5.496094 C 2.871094 -5.496094 2.464844 -5.332031 2.136719 -5.007812 C 1.804688 -4.683594 1.625 -4.25 1.585938 -3.710938 Z M 1.585938 -3.710938 "/>
</g>
<g id="glyph-3-6">
</g>
<g id="glyph-3-7">
<path d="M 0.367188 -1.859375 L 1.414062 -2.023438 C 1.46875 -1.601562 1.632812 -1.28125 1.902344 -1.0625 C 2.167969 -0.835938 2.542969 -0.726562 3.023438 -0.726562 C 3.507812 -0.726562 3.867188 -0.824219 4.101562 -1.023438 C 4.335938 -1.21875 4.453125 -1.449219 4.453125 -1.71875 C 4.453125 -1.953125 4.347656 -2.140625 4.140625 -2.28125 C 3.996094 -2.375 3.640625 -2.492188 3.0625 -2.636719 C 2.289062 -2.832031 1.753906 -3 1.457031 -3.144531 C 1.15625 -3.285156 0.929688 -3.484375 0.777344 -3.734375 C 0.621094 -3.988281 0.546875 -4.265625 0.546875 -4.570312 C 0.546875 -4.847656 0.609375 -5.105469 0.734375 -5.339844 C 0.863281 -5.578125 1.035156 -5.773438 1.253906 -5.929688 C 1.417969 -6.050781 1.640625 -6.152344 1.925781 -6.238281 C 2.207031 -6.320312 2.511719 -6.363281 2.835938 -6.363281 C 3.324219 -6.363281 3.753906 -6.292969 4.121094 -6.152344 C 4.492188 -6.011719 4.761719 -5.820312 4.9375 -5.582031 C 5.113281 -5.339844 5.234375 -5.019531 5.304688 -4.617188 L 4.273438 -4.476562 C 4.226562 -4.796875 4.089844 -5.046875 3.863281 -5.226562 C 3.640625 -5.40625 3.320312 -5.496094 2.914062 -5.496094 C 2.425781 -5.496094 2.082031 -5.414062 1.875 -5.257812 C 1.667969 -5.09375 1.5625 -4.90625 1.5625 -4.695312 C 1.5625 -4.554688 1.605469 -4.433594 1.695312 -4.324219 C 1.777344 -4.210938 1.914062 -4.117188 2.097656 -4.042969 C 2.203125 -4.003906 2.515625 -3.914062 3.03125 -3.773438 C 3.773438 -3.574219 4.296875 -3.410156 4.589844 -3.285156 C 4.886719 -3.15625 5.117188 -2.972656 5.285156 -2.730469 C 5.453125 -2.488281 5.535156 -2.1875 5.539062 -1.828125 C 5.535156 -1.476562 5.433594 -1.144531 5.230469 -0.835938 C 5.023438 -0.523438 4.726562 -0.285156 4.34375 -0.113281 C 3.953125 0.0546875 3.515625 0.140625 3.03125 0.140625 C 2.21875 0.140625 1.605469 -0.0273438 1.179688 -0.363281 C 0.757812 -0.699219 0.484375 -1.199219 0.367188 -1.859375 Z M 0.367188 -1.859375 "/>
</g>
<g id="glyph-3-8">
<path d="M 0.796875 -7.375 L 0.796875 -8.589844 L 1.851562 -8.589844 L 1.851562 -7.375 L 0.796875 -7.375 M 0.796875 0 L 0.796875 -6.222656 L 1.851562 -6.222656 L 1.851562 0 Z M 0.796875 0 "/>
</g>
<g id="glyph-3-9">
<path d="M 0.234375 0 L 0.234375 -0.855469 L 4.195312 -5.402344 C 3.746094 -5.378906 3.347656 -5.367188 3.007812 -5.367188 L 0.46875 -5.367188 L 0.46875 -6.222656 L 5.554688 -6.222656 L 5.554688 -5.523438 L 2.1875 -1.578125 L 1.535156 -0.855469 C 2.007812 -0.890625 2.449219 -0.90625 2.867188 -0.90625 L 5.742188 -0.90625 L 5.742188 0 Z M 0.234375 0 "/>
</g>
</g>
<clipPath id="clip-0">
<path clip-rule="nonzero" d="M 46.144531 392 L 462.019531 392 L 462.019531 393 L 46.144531 393 Z M 46.144531 392 "/>
</clipPath>
<clipPath id="clip-1">
<path clip-rule="nonzero" d="M 46.144531 277 L 462.019531 277 L 462.019531 279 L 46.144531 279 Z M 46.144531 277 "/>
</clipPath>
<clipPath id="clip-2">
<path clip-rule="nonzero" d="M 46.144531 163 L 462.019531 163 L 462.019531 165 L 46.144531 165 Z M 46.144531 163 "/>
</clipPath>
<clipPath id="clip-3">
<path clip-rule="nonzero" d="M 46.144531 49 L 462.019531 49 L 462.019531 50 L 46.144531 50 Z M 46.144531 49 "/>
</clipPath>
<clipPath id="clip-4">
<path clip-rule="nonzero" d="M 46.144531 334 L 462.019531 334 L 462.019531 336 L 46.144531 336 Z M 46.144531 334 "/>
</clipPath>
<clipPath id="clip-5">
<path clip-rule="nonzero" d="M 46.144531 220 L 462.019531 220 L 462.019531 222 L 46.144531 222 Z M 46.144531 220 "/>
</clipPath>
<clipPath id="clip-6">
<path clip-rule="nonzero" d="M 46.144531 106 L 462.019531 106 L 462.019531 108 L 46.144531 108 Z M 46.144531 106 "/>
</clipPath>
<clipPath id="clip-7">
<path clip-rule="nonzero" d="M 123 5.976562 L 125 5.976562 L 125 404.558594 L 123 404.558594 Z M 123 5.976562 "/>
</clipPath>
<clipPath id="clip-8">
<path clip-rule="nonzero" d="M 253 5.976562 L 255 5.976562 L 255 404.558594 L 253 404.558594 Z M 253 5.976562 "/>
</clipPath>
<clipPath id="clip-9">
<path clip-rule="nonzero" d="M 383 5.976562 L 385 5.976562 L 385 404.558594 L 383 404.558594 Z M 383 5.976562 "/>
</clipPath>
</defs>
<rect x="-46.8" y="-46.8" width="561.6" height="561.6" fill="rgb(100%, 100%, 100%)" fill-opacity="1"/>
<g clip-path="url(#clip-0)">
<path fill="none" stroke-width="0.581988" stroke-linecap="butt" stroke-linejoin="round" stroke="rgb(92.156863%, 92.156863%, 92.156863%)" stroke-opacity="1" stroke-miterlimit="10" d="M 46.144531 392.433594 L 462.023438 392.433594 "/>
</g>
<g clip-path="url(#clip-1)">
<path fill="none" stroke-width="0.581988" stroke-linecap="butt" stroke-linejoin="round" stroke="rgb(92.156863%, 92.156863%, 92.156863%)" stroke-opacity="1" stroke-miterlimit="10" d="M 46.144531 278.167969 L 462.023438 278.167969 "/>
</g>
<g clip-path="url(#clip-2)">
<path fill="none" stroke-width="0.581988" stroke-linecap="butt" stroke-linejoin="round" stroke="rgb(92.156863%, 92.156863%, 92.156863%)" stroke-opacity="1" stroke-miterlimit="10" d="M 46.144531 163.90625 L 462.023438 163.90625 "/>
</g>
<g clip-path="url(#clip-3)">
<path fill="none" stroke-width="0.581988" stroke-linecap="butt" stroke-linejoin="round" stroke="rgb(92.156863%, 92.156863%, 92.156863%)" stroke-opacity="1" stroke-miterlimit="10" d="M 46.144531 49.640625 L 462.023438 49.640625 "/>
</g>
<g clip-path="url(#clip-4)">
<path fill="none" stroke-width="1.163976" stroke-linecap="butt" stroke-linejoin="round" stroke="rgb(92.156863%, 92.156863%, 92.156863%)" stroke-opacity="1" stroke-miterlimit="10" d="M 46.144531 335.300781 L 462.023438 335.300781 "/>
</g>
<g clip-path="url(#clip-5)">
<path fill="none" stroke-width="1.163976" stroke-linecap="butt" stroke-linejoin="round" stroke="rgb(92.156863%, 92.156863%, 92.156863%)" stroke-opacity="1" stroke-miterlimit="10" d="M 46.144531 221.035156 L 462.023438 221.035156 "/>
</g>
<g clip-path="url(#clip-6)">
<path fill="none" stroke-width="1.163976" stroke-linecap="butt" stroke-linejoin="round" stroke="rgb(92.156863%, 92.156863%, 92.156863%)" stroke-opacity="1" stroke-miterlimit="10" d="M 46.144531 106.773438 L 462.023438 106.773438 "/>
</g>
<g clip-path="url(#clip-7)">
<path fill="none" stroke-width="1.163976" stroke-linecap="butt" stroke-linejoin="round" stroke="rgb(92.156863%, 92.156863%, 92.156863%)" stroke-opacity="1" stroke-miterlimit="10" d="M 124.121094 404.558594 L 124.121094 5.976562 "/>
</g>
<g clip-path="url(#clip-8)">
<path fill="none" stroke-width="1.163976" stroke-linecap="butt" stroke-linejoin="round" stroke="rgb(92.156863%, 92.156863%, 92.156863%)" stroke-opacity="1" stroke-miterlimit="10" d="M 254.085938 404.558594 L 254.085938 5.976562 "/>
</g>
<g clip-path="url(#clip-9)">
<path fill="none" stroke-width="1.163976" stroke-linecap="butt" stroke-linejoin="round" stroke="rgb(92.156863%, 92.156863%, 92.156863%)" stroke-opacity="1" stroke-miterlimit="10" d="M 384.046875 404.558594 L 384.046875 5.976562 "/>
</g>
<path fill-rule="nonzero" fill="rgb(97.254902%, 46.27451%, 42.745098%)" fill-opacity="1" d="M 98.585938 187.714844 C 98.585938 192.167969 91.902344 192.167969 91.902344 187.714844 C 91.902344 183.257812 98.585938 183.257812 98.585938 187.714844 "/>
<path fill-rule="nonzero" fill="rgb(0%, 72.941176%, 21.960784%)" fill-opacity="1" d="M 105.804688 127.167969 C 105.804688 131.621094 99.121094 131.621094 99.121094 127.167969 C 99.121094 122.710938 105.804688 122.710938 105.804688 127.167969 "/>
<path fill-rule="nonzero" fill="rgb(38.039216%, 61.176471%, 100%)" fill-opacity="1" d="M 113.023438 55.785156 C 113.023438 60.238281 106.339844 60.238281 106.339844 55.785156 C 106.339844 51.328125 113.023438 51.328125 113.023438 55.785156 "/>
<path fill-rule="nonzero" fill="rgb(97.254902%, 46.27451%, 42.745098%)" fill-opacity="1" d="M 116.902344 208.898438 L 121.402344 216.695312 L 112.402344 216.695312 Z M 116.902344 208.898438 "/>
<path fill-rule="nonzero" fill="rgb(0%, 72.941176%, 21.960784%)" fill-opacity="1" d="M 124.121094 145.371094 L 128.625 153.167969 L 119.621094 153.167969 Z M 124.121094 145.371094 "/>
<path fill-rule="nonzero" fill="rgb(38.039216%, 61.176471%, 100%)" fill-opacity="1" d="M 131.34375 76.476562 L 135.84375 84.273438 L 126.84375 84.273438 Z M 131.34375 76.476562 "/>
<path fill-rule="nonzero" fill="rgb(97.254902%, 46.27451%, 42.745098%)" fill-opacity="1" d="M 135.222656 232.910156 L 141.90625 232.910156 L 141.90625 226.226562 L 135.222656 226.226562 Z M 135.222656 232.910156 "/>
<path fill-rule="nonzero" fill="rgb(0%, 72.941176%, 21.960784%)" fill-opacity="1" d="M 142.441406 183.328125 L 149.125 183.328125 L 149.125 176.644531 L 142.441406 176.644531 Z M 142.441406 183.328125 "/>
<path fill-rule="nonzero" fill="rgb(38.039216%, 61.176471%, 100%)" fill-opacity="1" d="M 149.660156 107.945312 L 156.34375 107.945312 L 156.34375 101.261719 L 149.660156 101.261719 Z M 149.660156 107.945312 "/>
<path fill-rule="nonzero" fill="rgb(97.254902%, 46.27451%, 42.745098%)" fill-opacity="1" d="M 228.546875 214.667969 C 228.546875 219.125 221.863281 219.125 221.863281 214.667969 C 221.863281 210.210938 228.546875 210.210938 228.546875 214.667969 "/>
<path fill-rule="nonzero" fill="rgb(0%, 72.941176%, 21.960784%)" fill-opacity="1" d="M 235.765625 134.59375 C 235.765625 139.050781 229.082031 139.050781 229.082031 134.59375 C 229.082031 130.140625 235.765625 130.140625 235.765625 134.59375 "/>
<path fill-rule="nonzero" fill="rgb(38.039216%, 61.176471%, 100%)" fill-opacity="1" d="M 242.984375 29.363281 C 242.984375 33.820312 236.300781 33.820312 236.300781 29.363281 C 236.300781 24.910156 242.984375 24.910156 242.984375 29.363281 "/>
<path fill-rule="nonzero" fill="rgb(97.254902%, 46.27451%, 42.745098%)" fill-opacity="1" d="M 246.863281 247.816406 L 251.363281 255.613281 L 242.363281 255.613281 Z M 246.863281 247.816406 "/>
<path fill-rule="nonzero" fill="rgb(0%, 72.941176%, 21.960784%)" fill-opacity="1" d="M 254.085938 172.835938 L 258.585938 180.628906 L 249.582031 180.628906 Z M 254.085938 172.835938 "/>
<path fill-rule="nonzero" fill="rgb(38.039216%, 61.176471%, 100%)" fill-opacity="1" d="M 261.304688 71.550781 L 265.804688 79.34375 L 256.804688 79.34375 Z M 261.304688 71.550781 "/>
<path fill-rule="nonzero" fill="rgb(97.254902%, 46.27451%, 42.745098%)" fill-opacity="1" d="M 265.183594 299.898438 L 271.867188 299.898438 L 271.867188 293.214844 L 265.183594 293.214844 Z M 265.183594 299.898438 "/>
<path fill-rule="nonzero" fill="rgb(0%, 72.941176%, 21.960784%)" fill-opacity="1" d="M 272.402344 228.203125 L 279.085938 228.203125 L 279.085938 221.519531 L 272.402344 221.519531 Z M 272.402344 228.203125 "/>
<path fill-rule="nonzero" fill="rgb(38.039216%, 61.176471%, 100%)" fill-opacity="1" d="M 279.621094 129.375 L 286.304688 129.375 L 286.304688 122.691406 L 279.621094 122.691406 Z M 279.621094 129.375 "/>
<path fill-rule="nonzero" fill="rgb(97.254902%, 46.27451%, 42.745098%)" fill-opacity="1" d="M 358.507812 290.296875 C 358.507812 294.753906 351.824219 294.753906 351.824219 290.296875 C 351.824219 285.84375 358.507812 285.84375 358.507812 290.296875 "/>
<path fill-rule="nonzero" fill="rgb(0%, 72.941176%, 21.960784%)" fill-opacity="1" d="M 365.726562 199.582031 C 365.726562 204.035156 359.042969 204.035156 359.042969 199.582031 C 359.042969 195.125 365.726562 195.125 365.726562 199.582031 "/>
<path fill-rule="nonzero" fill="rgb(38.039216%, 61.176471%, 100%)" fill-opacity="1" d="M 372.945312 74.304688 C 372.945312 78.761719 366.261719 78.761719 366.261719 74.304688 C 366.261719 69.847656 372.945312 69.847656 372.945312 74.304688 "/>
<path fill-rule="nonzero" fill="rgb(97.254902%, 46.27451%, 42.745098%)" fill-opacity="1" d="M 376.824219 336.222656 L 381.328125 344.015625 L 372.324219 344.015625 Z M 376.824219 336.222656 "/>
<path fill-rule="nonzero" fill="rgb(0%, 72.941176%, 21.960784%)" fill-opacity="1" d="M 384.046875 263.3125 L 388.546875 271.109375 L 379.542969 271.109375 Z M 384.046875 263.3125 "/>
<path fill-rule="nonzero" fill="rgb(38.039216%, 61.176471%, 100%)" fill-opacity="1" d="M 391.265625 146.582031 L 395.765625 154.378906 L 386.765625 154.378906 Z M 391.265625 146.582031 "/>
<path fill-rule="nonzero" fill="rgb(97.254902%, 46.27451%, 42.745098%)" fill-opacity="1" d="M 395.144531 387.839844 L 401.828125 387.839844 L 401.828125 381.15625 L 395.144531 381.15625 Z M 395.144531 387.839844 "/>
<path fill-rule="nonzero" fill="rgb(0%, 72.941176%, 21.960784%)" fill-opacity="1" d="M 402.363281 325.28125 L 409.046875 325.28125 L 409.046875 318.597656 L 402.363281 318.597656 Z M 402.363281 325.28125 "/>
<path fill-rule="nonzero" fill="rgb(38.039216%, 61.176471%, 100%)" fill-opacity="1" d="M 409.585938 219.421875 L 416.269531 219.421875 L 416.269531 212.738281 L 409.585938 212.738281 Z M 409.585938 219.421875 "/>
<path fill="none" stroke-width="1.066978" stroke-linecap="butt" stroke-linejoin="round" stroke="rgb(97.254902%, 46.27451%, 42.745098%)" stroke-opacity="1" stroke-miterlimit="10" d="M 94.160156 181.910156 L 96.324219 181.910156 "/>
<path fill="none" stroke-width="1.066978" stroke-linecap="butt" stroke-linejoin="round" stroke="rgb(97.254902%, 46.27451%, 42.745098%)" stroke-opacity="1" stroke-miterlimit="10" d="M 95.242188 181.910156 L 95.242188 193.515625 "/>
<path fill="none" stroke-width="1.066978" stroke-linecap="butt" stroke-linejoin="round" stroke="rgb(97.254902%, 46.27451%, 42.745098%)" stroke-opacity="1" stroke-miterlimit="10" d="M 94.160156 193.515625 L 96.324219 193.515625 "/>
<path fill="none" stroke-width="1.066978" stroke-linecap="butt" stroke-linejoin="round" stroke="rgb(0%, 72.941176%, 21.960784%)" stroke-opacity="1" stroke-miterlimit="10" d="M 101.378906 120.582031 L 103.546875 120.582031 "/>
<path fill="none" stroke-width="1.066978" stroke-linecap="butt" stroke-linejoin="round" stroke="rgb(0%, 72.941176%, 21.960784%)" stroke-opacity="1" stroke-miterlimit="10" d="M 102.460938 120.582031 L 102.460938 133.75 "/>
<path fill="none" stroke-width="1.066978" stroke-linecap="butt" stroke-linejoin="round" stroke="rgb(0%, 72.941176%, 21.960784%)" stroke-opacity="1" stroke-miterlimit="10" d="M 101.378906 133.75 L 103.546875 133.75 "/>
<path fill="none" stroke-width="1.066978" stroke-linecap="butt" stroke-linejoin="round" stroke="rgb(38.039216%, 61.176471%, 100%)" stroke-opacity="1" stroke-miterlimit="10" d="M 108.597656 49.058594 L 110.765625 49.058594 "/>
<path fill="none" stroke-width="1.066978" stroke-linecap="butt" stroke-linejoin="round" stroke="rgb(38.039216%, 61.176471%, 100%)" stroke-opacity="1" stroke-miterlimit="10" d="M 109.683594 49.058594 L 109.683594 62.511719 "/>
<path fill="none" stroke-width="1.066978" stroke-linecap="butt" stroke-linejoin="round" stroke="rgb(38.039216%, 61.176471%, 100%)" stroke-opacity="1" stroke-miterlimit="10" d="M 108.597656 62.511719 L 110.765625 62.511719 "/>
<path fill="none" stroke-width="1.066978" stroke-linecap="butt" stroke-linejoin="round" stroke="rgb(97.254902%, 46.27451%, 42.745098%)" stroke-opacity="1" stroke-miterlimit="10" d="M 115.820312 209.078125 L 117.984375 209.078125 "/>
<path fill="none" stroke-width="1.066978" stroke-linecap="butt" stroke-linejoin="round" stroke="rgb(97.254902%, 46.27451%, 42.745098%)" stroke-opacity="1" stroke-miterlimit="10" d="M 116.902344 209.078125 L 116.902344 219.117188 "/>
<path fill="none" stroke-width="1.066978" stroke-linecap="butt" stroke-linejoin="round" stroke="rgb(97.254902%, 46.27451%, 42.745098%)" stroke-opacity="1" stroke-miterlimit="10" d="M 115.820312 219.117188 L 117.984375 219.117188 "/>
<path fill="none" stroke-width="1.066978" stroke-linecap="butt" stroke-linejoin="round" stroke="rgb(0%, 72.941176%, 21.960784%)" stroke-opacity="1" stroke-miterlimit="10" d="M 123.039062 145.054688 L 125.207031 145.054688 "/>
<path fill="none" stroke-width="1.066978" stroke-linecap="butt" stroke-linejoin="round" stroke="rgb(0%, 72.941176%, 21.960784%)" stroke-opacity="1" stroke-miterlimit="10" d="M 124.121094 145.054688 L 124.121094 156.085938 "/>
<path fill="none" stroke-width="1.066978" stroke-linecap="butt" stroke-linejoin="round" stroke="rgb(0%, 72.941176%, 21.960784%)" stroke-opacity="1" stroke-miterlimit="10" d="M 123.039062 156.085938 L 125.207031 156.085938 "/>
<path fill="none" stroke-width="1.066978" stroke-linecap="butt" stroke-linejoin="round" stroke="rgb(38.039216%, 61.176471%, 100%)" stroke-opacity="1" stroke-miterlimit="10" d="M 130.257812 76.0625 L 132.425781 76.0625 "/>
<path fill="none" stroke-width="1.066978" stroke-linecap="butt" stroke-linejoin="round" stroke="rgb(38.039216%, 61.176471%, 100%)" stroke-opacity="1" stroke-miterlimit="10" d="M 131.34375 76.0625 L 131.34375 87.289062 "/>
<path fill="none" stroke-width="1.066978" stroke-linecap="butt" stroke-linejoin="round" stroke="rgb(38.039216%, 61.176471%, 100%)" stroke-opacity="1" stroke-miterlimit="10" d="M 130.257812 87.289062 L 132.425781 87.289062 "/>
<path fill="none" stroke-width="1.066978" stroke-linecap="butt" stroke-linejoin="round" stroke="rgb(97.254902%, 46.27451%, 42.745098%)" stroke-opacity="1" stroke-miterlimit="10" d="M 137.480469 225.199219 L 139.644531 225.199219 "/>
<path fill="none" stroke-width="1.066978" stroke-linecap="butt" stroke-linejoin="round" stroke="rgb(97.254902%, 46.27451%, 42.745098%)" stroke-opacity="1" stroke-miterlimit="10" d="M 138.5625 225.199219 L 138.5625 233.941406 "/>
<path fill="none" stroke-width="1.066978" stroke-linecap="butt" stroke-linejoin="round" stroke="rgb(97.254902%, 46.27451%, 42.745098%)" stroke-opacity="1" stroke-miterlimit="10" d="M 137.480469 233.941406 L 139.644531 233.941406 "/>
<path fill="none" stroke-width="1.066978" stroke-linecap="butt" stroke-linejoin="round" stroke="rgb(0%, 72.941176%, 21.960784%)" stroke-opacity="1" stroke-miterlimit="10" d="M 144.699219 175.320312 L 146.867188 175.320312 "/>
<path fill="none" stroke-width="1.066978" stroke-linecap="butt" stroke-linejoin="round" stroke="rgb(0%, 72.941176%, 21.960784%)" stroke-opacity="1" stroke-miterlimit="10" d="M 145.78125 175.320312 L 145.78125 184.652344 "/>
<path fill="none" stroke-width="1.066978" stroke-linecap="butt" stroke-linejoin="round" stroke="rgb(0%, 72.941176%, 21.960784%)" stroke-opacity="1" stroke-miterlimit="10" d="M 144.699219 184.652344 L 146.867188 184.652344 "/>
<path fill="none" stroke-width="1.066978" stroke-linecap="butt" stroke-linejoin="round" stroke="rgb(38.039216%, 61.176471%, 100%)" stroke-opacity="1" stroke-miterlimit="10" d="M 151.921875 99.949219 L 154.085938 99.949219 "/>
<path fill="none" stroke-width="1.066978" stroke-linecap="butt" stroke-linejoin="round" stroke="rgb(38.039216%, 61.176471%, 100%)" stroke-opacity="1" stroke-miterlimit="10" d="M 153.003906 99.949219 L 153.003906 109.257812 "/>
<path fill="none" stroke-width="1.066978" stroke-linecap="butt" stroke-linejoin="round" stroke="rgb(38.039216%, 61.176471%, 100%)" stroke-opacity="1" stroke-miterlimit="10" d="M 151.921875 109.257812 L 154.085938 109.257812 "/>
<path fill="none" stroke-width="1.066978" stroke-linecap="butt" stroke-linejoin="round" stroke="rgb(97.254902%, 46.27451%, 42.745098%)" stroke-opacity="1" stroke-miterlimit="10" d="M 224.121094 209.648438 L 226.285156 209.648438 "/>
<path fill="none" stroke-width="1.066978" stroke-linecap="butt" stroke-linejoin="round" stroke="rgb(97.254902%, 46.27451%, 42.745098%)" stroke-opacity="1" stroke-miterlimit="10" d="M 225.203125 209.648438 L 225.203125 219.6875 "/>
<path fill="none" stroke-width="1.066978" stroke-linecap="butt" stroke-linejoin="round" stroke="rgb(97.254902%, 46.27451%, 42.745098%)" stroke-opacity="1" stroke-miterlimit="10" d="M 224.121094 219.6875 L 226.285156 219.6875 "/>
<path fill="none" stroke-width="1.066978" stroke-linecap="butt" stroke-linejoin="round" stroke="rgb(0%, 72.941176%, 21.960784%)" stroke-opacity="1" stroke-miterlimit="10" d="M 231.339844 129.242188 L 233.507812 129.242188 "/>
<path fill="none" stroke-width="1.066978" stroke-linecap="butt" stroke-linejoin="round" stroke="rgb(0%, 72.941176%, 21.960784%)" stroke-opacity="1" stroke-miterlimit="10" d="M 232.425781 129.242188 L 232.425781 139.949219 "/>
<path fill="none" stroke-width="1.066978" stroke-linecap="butt" stroke-linejoin="round" stroke="rgb(0%, 72.941176%, 21.960784%)" stroke-opacity="1" stroke-miterlimit="10" d="M 231.339844 139.949219 L 233.507812 139.949219 "/>
<path fill="none" stroke-width="1.066978" stroke-linecap="butt" stroke-linejoin="round" stroke="rgb(38.039216%, 61.176471%, 100%)" stroke-opacity="1" stroke-miterlimit="10" d="M 238.5625 24.09375 L 240.726562 24.09375 "/>
<path fill="none" stroke-width="1.066978" stroke-linecap="butt" stroke-linejoin="round" stroke="rgb(38.039216%, 61.176471%, 100%)" stroke-opacity="1" stroke-miterlimit="10" d="M 239.644531 24.09375 L 239.644531 34.632812 "/>
<path fill="none" stroke-width="1.066978" stroke-linecap="butt" stroke-linejoin="round" stroke="rgb(38.039216%, 61.176471%, 100%)" stroke-opacity="1" stroke-miterlimit="10" d="M 238.5625 34.632812 L 240.726562 34.632812 "/>
<path fill="none" stroke-width="1.066978" stroke-linecap="butt" stroke-linejoin="round" stroke="rgb(97.254902%, 46.27451%, 42.745098%)" stroke-opacity="1" stroke-miterlimit="10" d="M 245.78125 249.332031 L 247.945312 249.332031 "/>
<path fill="none" stroke-width="1.066978" stroke-linecap="butt" stroke-linejoin="round" stroke="rgb(97.254902%, 46.27451%, 42.745098%)" stroke-opacity="1" stroke-miterlimit="10" d="M 246.863281 249.332031 L 246.863281 256.691406 "/>
<path fill="none" stroke-width="1.066978" stroke-linecap="butt" stroke-linejoin="round" stroke="rgb(97.254902%, 46.27451%, 42.745098%)" stroke-opacity="1" stroke-miterlimit="10" d="M 245.78125 256.691406 L 247.945312 256.691406 "/>
<path fill="none" stroke-width="1.066978" stroke-linecap="butt" stroke-linejoin="round" stroke="rgb(0%, 72.941176%, 21.960784%)" stroke-opacity="1" stroke-miterlimit="10" d="M 253 173.945312 L 255.167969 173.945312 "/>
<path fill="none" stroke-width="1.066978" stroke-linecap="butt" stroke-linejoin="round" stroke="rgb(0%, 72.941176%, 21.960784%)" stroke-opacity="1" stroke-miterlimit="10" d="M 254.085938 173.945312 L 254.085938 182.117188 "/>
<path fill="none" stroke-width="1.066978" stroke-linecap="butt" stroke-linejoin="round" stroke="rgb(0%, 72.941176%, 21.960784%)" stroke-opacity="1" stroke-miterlimit="10" d="M 253 182.117188 L 255.167969 182.117188 "/>
<path fill="none" stroke-width="1.066978" stroke-linecap="butt" stroke-linejoin="round" stroke="rgb(38.039216%, 61.176471%, 100%)" stroke-opacity="1" stroke-miterlimit="10" d="M 260.222656 72.507812 L 262.386719 72.507812 "/>
<path fill="none" stroke-width="1.066978" stroke-linecap="butt" stroke-linejoin="round" stroke="rgb(38.039216%, 61.176471%, 100%)" stroke-opacity="1" stroke-miterlimit="10" d="M 261.304688 72.507812 L 261.304688 80.984375 "/>
<path fill="none" stroke-width="1.066978" stroke-linecap="butt" stroke-linejoin="round" stroke="rgb(38.039216%, 61.176471%, 100%)" stroke-opacity="1" stroke-miterlimit="10" d="M 260.222656 80.984375 L 262.386719 80.984375 "/>
<path fill="none" stroke-width="1.066978" stroke-linecap="butt" stroke-linejoin="round" stroke="rgb(97.254902%, 46.27451%, 42.745098%)" stroke-opacity="1" stroke-miterlimit="10" d="M 267.441406 293.476562 L 269.605469 293.476562 "/>
<path fill="none" stroke-width="1.066978" stroke-linecap="butt" stroke-linejoin="round" stroke="rgb(97.254902%, 46.27451%, 42.745098%)" stroke-opacity="1" stroke-miterlimit="10" d="M 268.523438 293.476562 L 268.523438 299.640625 "/>
<path fill="none" stroke-width="1.066978" stroke-linecap="butt" stroke-linejoin="round" stroke="rgb(97.254902%, 46.27451%, 42.745098%)" stroke-opacity="1" stroke-miterlimit="10" d="M 267.441406 299.640625 L 269.605469 299.640625 "/>
<path fill="none" stroke-width="1.066978" stroke-linecap="butt" stroke-linejoin="round" stroke="rgb(0%, 72.941176%, 21.960784%)" stroke-opacity="1" stroke-miterlimit="10" d="M 274.660156 221.695312 L 276.828125 221.695312 "/>
<path fill="none" stroke-width="1.066978" stroke-linecap="butt" stroke-linejoin="round" stroke="rgb(0%, 72.941176%, 21.960784%)" stroke-opacity="1" stroke-miterlimit="10" d="M 275.746094 221.695312 L 275.746094 228.027344 "/>
<path fill="none" stroke-width="1.066978" stroke-linecap="butt" stroke-linejoin="round" stroke="rgb(0%, 72.941176%, 21.960784%)" stroke-opacity="1" stroke-miterlimit="10" d="M 274.660156 228.027344 L 276.828125 228.027344 "/>
<path fill="none" stroke-width="1.066978" stroke-linecap="butt" stroke-linejoin="round" stroke="rgb(38.039216%, 61.176471%, 100%)" stroke-opacity="1" stroke-miterlimit="10" d="M 281.882812 122.8125 L 284.046875 122.8125 "/>
<path fill="none" stroke-width="1.066978" stroke-linecap="butt" stroke-linejoin="round" stroke="rgb(38.039216%, 61.176471%, 100%)" stroke-opacity="1" stroke-miterlimit="10" d="M 282.964844 122.8125 L 282.964844 129.257812 "/>
<path fill="none" stroke-width="1.066978" stroke-linecap="butt" stroke-linejoin="round" stroke="rgb(38.039216%, 61.176471%, 100%)" stroke-opacity="1" stroke-miterlimit="10" d="M 281.882812 129.257812 L 284.046875 129.257812 "/>
<path fill="none" stroke-width="1.066978" stroke-linecap="butt" stroke-linejoin="round" stroke="rgb(97.254902%, 46.27451%, 42.745098%)" stroke-opacity="1" stroke-miterlimit="10" d="M 354.082031 286.515625 L 356.25 286.515625 "/>
<path fill="none" stroke-width="1.066978" stroke-linecap="butt" stroke-linejoin="round" stroke="rgb(97.254902%, 46.27451%, 42.745098%)" stroke-opacity="1" stroke-miterlimit="10" d="M 355.164062 286.515625 L 355.164062 294.082031 "/>
<path fill="none" stroke-width="1.066978" stroke-linecap="butt" stroke-linejoin="round" stroke="rgb(97.254902%, 46.27451%, 42.745098%)" stroke-opacity="1" stroke-miterlimit="10" d="M 354.082031 294.082031 L 356.25 294.082031 "/>
<path fill="none" stroke-width="1.066978" stroke-linecap="butt" stroke-linejoin="round" stroke="rgb(0%, 72.941176%, 21.960784%)" stroke-opacity="1" stroke-miterlimit="10" d="M 361.300781 195.441406 L 363.46875 195.441406 "/>
<path fill="none" stroke-width="1.066978" stroke-linecap="butt" stroke-linejoin="round" stroke="rgb(0%, 72.941176%, 21.960784%)" stroke-opacity="1" stroke-miterlimit="10" d="M 362.386719 195.441406 L 362.386719 203.71875 "/>
<path fill="none" stroke-width="1.066978" stroke-linecap="butt" stroke-linejoin="round" stroke="rgb(0%, 72.941176%, 21.960784%)" stroke-opacity="1" stroke-miterlimit="10" d="M 361.300781 203.71875 L 363.46875 203.71875 "/>
<path fill="none" stroke-width="1.066978" stroke-linecap="butt" stroke-linejoin="round" stroke="rgb(38.039216%, 61.176471%, 100%)" stroke-opacity="1" stroke-miterlimit="10" d="M 368.523438 70.082031 L 370.6875 70.082031 "/>
<path fill="none" stroke-width="1.066978" stroke-linecap="butt" stroke-linejoin="round" stroke="rgb(38.039216%, 61.176471%, 100%)" stroke-opacity="1" stroke-miterlimit="10" d="M 369.605469 70.082031 L 369.605469 78.53125 "/>
<path fill="none" stroke-width="1.066978" stroke-linecap="butt" stroke-linejoin="round" stroke="rgb(38.039216%, 61.176471%, 100%)" stroke-opacity="1" stroke-miterlimit="10" d="M 368.523438 78.53125 L 370.6875 78.53125 "/>
<path fill="none" stroke-width="1.066978" stroke-linecap="butt" stroke-linejoin="round" stroke="rgb(97.254902%, 46.27451%, 42.745098%)" stroke-opacity="1" stroke-miterlimit="10" d="M 375.742188 338.675781 L 377.910156 338.675781 "/>
<path fill="none" stroke-width="1.066978" stroke-linecap="butt" stroke-linejoin="round" stroke="rgb(97.254902%, 46.27451%, 42.745098%)" stroke-opacity="1" stroke-miterlimit="10" d="M 376.824219 338.675781 L 376.824219 344.160156 "/>
<path fill="none" stroke-width="1.066978" stroke-linecap="butt" stroke-linejoin="round" stroke="rgb(97.254902%, 46.27451%, 42.745098%)" stroke-opacity="1" stroke-miterlimit="10" d="M 375.742188 344.160156 L 377.910156 344.160156 "/>
<path fill="none" stroke-width="1.066978" stroke-linecap="butt" stroke-linejoin="round" stroke="rgb(0%, 72.941176%, 21.960784%)" stroke-opacity="1" stroke-miterlimit="10" d="M 382.960938 265.21875 L 385.128906 265.21875 "/>
<path fill="none" stroke-width="1.066978" stroke-linecap="butt" stroke-linejoin="round" stroke="rgb(0%, 72.941176%, 21.960784%)" stroke-opacity="1" stroke-miterlimit="10" d="M 384.046875 265.21875 L 384.046875 271.800781 "/>
<path fill="none" stroke-width="1.066978" stroke-linecap="butt" stroke-linejoin="round" stroke="rgb(0%, 72.941176%, 21.960784%)" stroke-opacity="1" stroke-miterlimit="10" d="M 382.960938 271.800781 L 385.128906 271.800781 "/>
<path fill="none" stroke-width="1.066978" stroke-linecap="butt" stroke-linejoin="round" stroke="rgb(38.039216%, 61.176471%, 100%)" stroke-opacity="1" stroke-miterlimit="10" d="M 390.183594 148.316406 L 392.347656 148.316406 "/>
<path fill="none" stroke-width="1.066978" stroke-linecap="butt" stroke-linejoin="round" stroke="rgb(38.039216%, 61.176471%, 100%)" stroke-opacity="1" stroke-miterlimit="10" d="M 391.265625 148.316406 L 391.265625 155.242188 "/>
<path fill="none" stroke-width="1.066978" stroke-linecap="butt" stroke-linejoin="round" stroke="rgb(38.039216%, 61.176471%, 100%)" stroke-opacity="1" stroke-miterlimit="10" d="M 390.183594 155.242188 L 392.347656 155.242188 "/>
<path fill="none" stroke-width="1.066978" stroke-linecap="butt" stroke-linejoin="round" stroke="rgb(97.254902%, 46.27451%, 42.745098%)" stroke-opacity="1" stroke-miterlimit="10" d="M 397.402344 382.554688 L 399.570312 382.554688 "/>
<path fill="none" stroke-width="1.066978" stroke-linecap="butt" stroke-linejoin="round" stroke="rgb(97.254902%, 46.27451%, 42.745098%)" stroke-opacity="1" stroke-miterlimit="10" d="M 398.484375 382.554688 L 398.484375 386.441406 "/>
<path fill="none" stroke-width="1.066978" stroke-linecap="butt" stroke-linejoin="round" stroke="rgb(97.254902%, 46.27451%, 42.745098%)" stroke-opacity="1" stroke-miterlimit="10" d="M 397.402344 386.441406 L 399.570312 386.441406 "/>
<path fill="none" stroke-width="1.066978" stroke-linecap="butt" stroke-linejoin="round" stroke="rgb(0%, 72.941176%, 21.960784%)" stroke-opacity="1" stroke-miterlimit="10" d="M 404.621094 319.445312 L 406.789062 319.445312 "/>
<path fill="none" stroke-width="1.066978" stroke-linecap="butt" stroke-linejoin="round" stroke="rgb(0%, 72.941176%, 21.960784%)" stroke-opacity="1" stroke-miterlimit="10" d="M 405.707031 319.445312 L 405.707031 324.433594 "/>
<path fill="none" stroke-width="1.066978" stroke-linecap="butt" stroke-linejoin="round" stroke="rgb(0%, 72.941176%, 21.960784%)" stroke-opacity="1" stroke-miterlimit="10" d="M 404.621094 324.433594 L 406.789062 324.433594 "/>
<path fill="none" stroke-width="1.066978" stroke-linecap="butt" stroke-linejoin="round" stroke="rgb(38.039216%, 61.176471%, 100%)" stroke-opacity="1" stroke-miterlimit="10" d="M 411.84375 213.207031 L 414.007812 213.207031 "/>
<path fill="none" stroke-width="1.066978" stroke-linecap="butt" stroke-linejoin="round" stroke="rgb(38.039216%, 61.176471%, 100%)" stroke-opacity="1" stroke-miterlimit="10" d="M 412.925781 213.207031 L 412.925781 218.957031 "/>
<path fill="none" stroke-width="1.066978" stroke-linecap="butt" stroke-linejoin="round" stroke="rgb(38.039216%, 61.176471%, 100%)" stroke-opacity="1" stroke-miterlimit="10" d="M 411.84375 218.957031 L 414.007812 218.957031 "/>
<g fill="rgb(30.196078%, 30.196078%, 30.196078%)" fill-opacity="1">
<use xlink:href="#glyph-0-0" x="22.082031" y="339.238281"/>
<use xlink:href="#glyph-0-1" x="27.421094" y="339.238281"/>
<use xlink:href="#glyph-0-0" x="30.088281" y="339.238281"/>
<use xlink:href="#glyph-0-2" x="35.427344" y="339.238281"/>
</g>
<g fill="rgb(30.196078%, 30.196078%, 30.196078%)" fill-opacity="1">
<use xlink:href="#glyph-0-0" x="22.082031" y="224.972656"/>
<use xlink:href="#glyph-0-1" x="27.421094" y="224.972656"/>
<use xlink:href="#glyph-0-3" x="30.088281" y="224.972656"/>
<use xlink:href="#glyph-0-0" x="35.427344" y="224.972656"/>
</g>
<g fill="rgb(30.196078%, 30.196078%, 30.196078%)" fill-opacity="1">
<use xlink:href="#glyph-0-0" x="22.082031" y="110.707031"/>
<use xlink:href="#glyph-0-1" x="27.421094" y="110.707031"/>
<use xlink:href="#glyph-0-3" x="30.088281" y="110.707031"/>
<use xlink:href="#glyph-0-2" x="35.427344" y="110.707031"/>
</g>
<g fill="rgb(30.196078%, 30.196078%, 30.196078%)" fill-opacity="1">
<use xlink:href="#glyph-0-4" x="89.695312" y="417.8125"/>
<use xlink:href="#glyph-0-5" x="94.495312" y="417.8125"/>
<use xlink:href="#glyph-0-6" x="97.1625" y="417.8125"/>
<use xlink:href="#glyph-0-5" x="102.76875" y="417.8125"/>
<use xlink:href="#glyph-0-0" x="105.435937" y="417.8125"/>
<use xlink:href="#glyph-0-1" x="110.775" y="417.8125"/>
<use xlink:href="#glyph-0-2" x="113.442187" y="417.8125"/>
<use xlink:href="#glyph-0-0" x="118.78125" y="417.8125"/>
</g>
<g fill="rgb(30.196078%, 30.196078%, 30.196078%)" fill-opacity="1">
<use xlink:href="#glyph-0-4" x="219.660156" y="417.8125"/>
<use xlink:href="#glyph-0-5" x="224.460156" y="417.8125"/>
<use xlink:href="#glyph-0-6" x="227.127344" y="417.8125"/>
<use xlink:href="#glyph-0-5" x="232.733594" y="417.8125"/>
<use xlink:href="#glyph-0-0" x="235.400781" y="417.8125"/>
<use xlink:href="#glyph-0-1" x="240.739844" y="417.8125"/>
<use xlink:href="#glyph-0-7" x="243.407031" y="417.8125"/>
<use xlink:href="#glyph-0-0" x="248.746094" y="417.8125"/>
</g>
<g fill="rgb(30.196078%, 30.196078%, 30.196078%)" fill-opacity="1">
<use xlink:href="#glyph-0-4" x="349.621094" y="417.8125"/>
<use xlink:href="#glyph-0-5" x="354.421094" y="417.8125"/>
<use xlink:href="#glyph-0-6" x="357.088281" y="417.8125"/>
<use xlink:href="#glyph-0-5" x="362.694531" y="417.8125"/>
<use xlink:href="#glyph-0-0" x="365.361719" y="417.8125"/>
<use xlink:href="#glyph-0-1" x="370.700781" y="417.8125"/>
<use xlink:href="#glyph-0-8" x="373.367969" y="417.8125"/>
<use xlink:href="#glyph-0-2" x="378.707031" y="417.8125"/>
</g>
<g fill="rgb(0%, 0%, 0%)" fill-opacity="1">
<use xlink:href="#glyph-1-0" x="15.566406" y="263.292969"/>
<use xlink:href="#glyph-1-1" x="15.566406" y="253.296875"/>
<use xlink:href="#glyph-1-2" x="15.566406" y="246.623047"/>
<use xlink:href="#glyph-1-3" x="15.566406" y="239.949219"/>
<use xlink:href="#glyph-1-4" x="15.566406" y="233.275391"/>
<use xlink:href="#glyph-1-5" x="15.566406" y="229.941406"/>
<use xlink:href="#glyph-1-6" x="15.566406" y="221.275391"/>
<use xlink:href="#glyph-1-7" x="15.566406" y="212.609375"/>
<use xlink:href="#glyph-1-4" x="15.566406" y="204.605469"/>
<use xlink:href="#glyph-1-1" x="15.566406" y="201.271484"/>
<use xlink:href="#glyph-1-8" x="15.566406" y="194.597656"/>
<use xlink:href="#glyph-1-8" x="15.566406" y="191.263672"/>
<use xlink:href="#glyph-1-1" x="15.566406" y="187.929688"/>
<use xlink:href="#glyph-1-9" x="15.566406" y="181.255859"/>
<use xlink:href="#glyph-1-10" x="15.566406" y="175.255859"/>
<use xlink:href="#glyph-1-4" x="15.566406" y="171.921875"/>
<use xlink:href="#glyph-1-11" x="15.566406" y="168.587891"/>
<use xlink:href="#glyph-1-12" x="15.566406" y="162.587891"/>
<use xlink:href="#glyph-1-13" x="15.566406" y="159.921875"/>
<use xlink:href="#glyph-1-1" x="15.566406" y="153.921875"/>
</g>
<g fill="rgb(0%, 0%, 0%)" fill-opacity="1">
<use xlink:href="#glyph-2-0" x="71.429688" y="451.15625"/>
</g>
<path fill-rule="nonzero" fill="rgb(97.254902%, 46.27451%, 42.745098%)" fill-opacity="1" stroke-width="0.708661" stroke-linecap="round" stroke-linejoin="round" stroke="rgb(97.254902%, 46.27451%, 42.745098%)" stroke-opacity="1" stroke-miterlimit="10" d="M 96.589844 447.40625 C 96.589844 451.859375 89.90625 451.859375 89.90625 447.40625 C 89.90625 442.949219 96.589844 442.949219 96.589844 447.40625 "/>
<path fill="none" stroke-width="1.066978" stroke-linecap="butt" stroke-linejoin="round" stroke="rgb(97.254902%, 46.27451%, 42.745098%)" stroke-opacity="1" stroke-miterlimit="10" d="M 86.335938 447.40625 L 100.160156 447.40625 "/>
<path fill-rule="nonzero" fill="rgb(0%, 72.941176%, 21.960784%)" fill-opacity="1" stroke-width="0.708661" stroke-linecap="round" stroke-linejoin="round" stroke="rgb(0%, 72.941176%, 21.960784%)" stroke-opacity="1" stroke-miterlimit="10" d="M 139.171875 447.40625 C 139.171875 451.859375 132.484375 451.859375 132.484375 447.40625 C 132.484375 442.949219 139.171875 442.949219 139.171875 447.40625 "/>
<path fill="none" stroke-width="1.066978" stroke-linecap="butt" stroke-linejoin="round" stroke="rgb(0%, 72.941176%, 21.960784%)" stroke-opacity="1" stroke-miterlimit="10" d="M 128.917969 447.40625 L 142.738281 447.40625 "/>
<path fill-rule="nonzero" fill="rgb(38.039216%, 61.176471%, 100%)" fill-opacity="1" stroke-width="0.708661" stroke-linecap="round" stroke-linejoin="round" stroke="rgb(38.039216%, 61.176471%, 100%)" stroke-opacity="1" stroke-miterlimit="10" d="M 181.75 447.40625 C 181.75 451.859375 175.066406 451.859375 175.066406 447.40625 C 175.066406 442.949219 181.75 442.949219 181.75 447.40625 "/>
<path fill="none" stroke-width="1.066978" stroke-linecap="butt" stroke-linejoin="round" stroke="rgb(38.039216%, 61.176471%, 100%)" stroke-opacity="1" stroke-miterlimit="10" d="M 171.496094 447.40625 L 185.320312 447.40625 "/>
<g fill="rgb(0%, 0%, 0%)" fill-opacity="1">
<use xlink:href="#glyph-0-0" x="107.867188" y="451.339844"/>
<use xlink:href="#glyph-0-1" x="113.20625" y="451.339844"/>
<use xlink:href="#glyph-0-9" x="115.873437" y="451.339844"/>
</g>
<g fill="rgb(0%, 0%, 0%)" fill-opacity="1">
<use xlink:href="#glyph-0-0" x="150.445312" y="451.339844"/>
<use xlink:href="#glyph-0-1" x="155.784375" y="451.339844"/>
<use xlink:href="#glyph-0-10" x="158.451563" y="451.339844"/>
</g>
<g fill="rgb(0%, 0%, 0%)" fill-opacity="1">
<use xlink:href="#glyph-0-0" x="193.027344" y="451.339844"/>
<use xlink:href="#glyph-0-1" x="198.366406" y="451.339844"/>
<use xlink:href="#glyph-0-11" x="201.033594" y="451.339844"/>
</g>
<g fill="rgb(0%, 0%, 0%)" fill-opacity="1">
<use xlink:href="#glyph-3-0" x="230.28125" y="452.199219"/>
<use xlink:href="#glyph-3-1" x="238.285156" y="452.199219"/>
<use xlink:href="#glyph-3-2" x="244.958984" y="452.199219"/>
<use xlink:href="#glyph-3-3" x="254.955078" y="452.199219"/>
<use xlink:href="#glyph-3-4" x="261.628906" y="452.199219"/>
<use xlink:href="#glyph-3-5" x="264.294922" y="452.199219"/>
<use xlink:href="#glyph-3-6" x="270.96875" y="452.199219"/>
<use xlink:href="#glyph-3-7" x="274.302734" y="452.199219"/>
<use xlink:href="#glyph-3-8" x="280.302734" y="452.199219"/>
<use xlink:href="#glyph-3-9" x="282.96875" y="452.199219"/>
<use xlink:href="#glyph-3-5" x="288.96875" y="452.199219"/>
</g>
<path fill-rule="nonzero" fill="rgb(0%, 0%, 0%)" fill-opacity="1" d="M 313.601562 447.40625 C 313.601562 451.859375 306.917969 451.859375 306.917969 447.40625 C 306.917969 442.949219 313.601562 442.949219 313.601562 447.40625 "/>
<path fill-rule="nonzero" fill="rgb(0%, 0%, 0%)" fill-opacity="1" d="M 355.511719 442.207031 L 360.015625 450.003906 L 351.011719 450.003906 Z M 355.511719 442.207031 "/>
<path fill-rule="nonzero" fill="rgb(0%, 0%, 0%)" fill-opacity="1" d="M 397.421875 450.746094 L 404.105469 450.746094 L 404.105469 444.0625 L 397.421875 444.0625 Z M 397.421875 450.746094 "/>
<g fill="rgb(0%, 0%, 0%)" fill-opacity="1">
<use xlink:href="#glyph-0-9" x="324.878906" y="451.339844"/>
<use xlink:href="#glyph-0-2" x="330.217969" y="451.339844"/>
<use xlink:href="#glyph-0-0" x="335.557031" y="451.339844"/>
</g>
<g fill="rgb(0%, 0%, 0%)" fill-opacity="1">
<use xlink:href="#glyph-0-2" x="370.128906" y="451.339844"/>
<use xlink:href="#glyph-0-0" x="375.467969" y="451.339844"/>
<use xlink:href="#glyph-0-0" x="380.807031" y="451.339844"/>
</g>
<g fill="rgb(0%, 0%, 0%)" fill-opacity="1">
<use xlink:href="#glyph-0-3" x="415.382812" y="451.339844"/>
<use xlink:href="#glyph-0-0" x="420.721875" y="451.339844"/>
<use xlink:href="#glyph-0-0" x="426.060938" y="451.339844"/>
<use xlink:href="#glyph-0-0" x="431.4" y="451.339844"/>
</g>
</svg>
